<?xml version="1.0" standalone="no"?><!DOCTYPE svg PUBLIC "-//W3C//DTD SVG 1.1//EN" "http://www.w3.org/Graphics/SVG/1.1/DTD/svg11.dtd"><svg t="1540976714857" class="icon" style="" viewBox="0 0 1024 1024" version="1.1" xmlns="http://www.w3.org/2000/svg" p-id="4147" xmlns:xlink="http://www.w3.org/1999/xlink" width="200" height="200"><defs><style type="text/css"></style></defs><path d="M800 384c0-160-128-288-288-288S224 224 224 384c0 108.8 57.6 201.6 147.2 249.6-121.6 48-214.4 153.6-240 288-3.2 16 6.4 35.2 25.6 38.4h6.4c16 0 28.8-9.6 32-25.6C224 784 355.2 675.2 508.8 672h6.4C672 672 800 544 800 384z m-512 0c0-124.8 99.2-224 224-224s224 99.2 224 224c0 121.6-99.2 220.8-220.8 224h-9.6C384 604.8 288 505.6 288 384z m435.2 291.2c-16-9.6-35.2-6.4-44.8 9.6-9.6 16-6.4 35.2 9.6 44.8 73.6 51.2 124.8 121.6 140.8 204.8 3.2 16 16 25.6 32 25.6h6.4c16-3.2 28.8-19.2 25.6-38.4-19.2-99.2-80-185.6-169.6-246.4z" p-id="4148"></path></svg>