<?xml version="1.0" standalone="no"?><!DOCTYPE svg PUBLIC "-//W3C//DTD SVG 1.1//EN" "http://www.w3.org/Graphics/SVG/1.1/DTD/svg11.dtd"><svg t="1532957401816" class="icon" style="" viewBox="0 0 1024 1024" version="1.1" xmlns="http://www.w3.org/2000/svg" p-id="9440" xmlns:xlink="http://www.w3.org/1999/xlink" width="200" height="200"><defs><style type="text/css"></style></defs><path d="M710.4 115.2C704 108.8 640 38.4 454.4 25.6H377.6h-19.2c-19.2 6.4-25.6 19.2-25.6 25.6 0 12.8 6.4 19.2 6.4 25.6l-19.2 19.2s-44.8 44.8-51.2 96c-6.4 44.8-6.4 108.8 6.4 153.6v6.4c-6.4 6.4-19.2 19.2-19.2 38.4 0 6.4 0 51.2 32 96 6.4 12.8 12.8 25.6 25.6 32 32 38.4 70.4 83.2 70.4 153.6V723.2s-6.4 12.8-70.4 32l-76.8 12.8c-44.8 12.8-89.6 25.6-115.2 44.8-25.6 19.2-51.2 38.4-64 64-25.6 38.4-25.6 76.8-25.6 83.2v32c0 12.8 6.4 19.2 19.2 19.2h915.2c12.8 0 19.2-6.4 19.2-19.2v-25.6c0-6.4 0-44.8-19.2-83.2-12.8-25.6-38.4-44.8-64-64-32-19.2-70.4-38.4-121.6-44.8 0 0-38.4 0-76.8-12.8-64-19.2-70.4-32-70.4-32v-6.4-44.8c6.4-76.8 44.8-115.2 76.8-153.6 6.4-12.8 19.2-19.2 25.6-32 32-44.8 32-96 32-96v-19.2c0-12.8-6.4-19.2-19.2-19.2v-6.4c6.4-19.2 6.4-38.4 6.4-51.2 0-25.6 0-64-6.4-102.4 0 0-12.8-57.6-38.4-83.2z" fill="" p-id="9441"></path></svg>