<?xml version="1.0" standalone="no"?><!DOCTYPE svg PUBLIC "-//W3C//DTD SVG 1.1//EN" "http://www.w3.org/Graphics/SVG/1.1/DTD/svg11.dtd"><svg t="1540977249348" class="icon" style="" viewBox="0 0 1024 1024" version="1.1" xmlns="http://www.w3.org/2000/svg" p-id="4367" xmlns:xlink="http://www.w3.org/1999/xlink" width="200" height="200"><defs><style type="text/css"></style></defs><path d="M975.517287 315.103608c-25.3739-59.992349-61.691037-113.865327-107.949594-160.118768-46.255487-46.254463-100.123348-82.575694-160.114674-107.947547C645.331169 20.761859 579.352479 7.440459 511.358899 7.440459c-67.992557 0-133.966131 13.3214-196.092074 39.597857-59.991326 25.372877-113.863281 61.692061-160.115697 107.945501-46.255487 46.25651-82.57467 100.126418-107.948571 160.118767-26.27441 62.123896-39.597857 128.102586-39.597857 196.095144 0 25.1324 1.870604 50.385551 5.556553 75.05337 2.396583 16.043395 17.35118 27.110451 33.394574 24.712844 16.042371-2.402723 27.105335-17.352203 24.708752-33.395597-3.261277-21.801539-4.912893-44.13315-4.912893-66.37164 0-245.38064 199.63169-445.01233 445.010283-445.01233s445.010283 199.63169 445.010283 445.01233-199.63169 445.010283-445.010283 445.010283c-121.597429 0-235.152694-48.124044-319.749418-135.502114-11.283997-11.658528-29.880541-11.960403-41.531906-0.669242-11.654434 11.277858-11.95631 29.880541-0.674358 41.531905 46.466288 47.997154 100.984972 85.7285 162.038489 112.149243 63.22088 27.361161 130.482797 41.23924 199.917193 41.23924 67.994604 0 133.975341-13.32447 196.095143-39.596834 59.992349-25.375947 113.866351-61.697177 160.116721-107.950617 46.252417-46.25344 82.569554-100.123348 107.948571-160.114674 26.273387-62.125943 39.597857-128.101563 39.597856-196.096167 0-67.99665-13.32754-133.969201-39.602973-196.096167v0.002047z" fill="" p-id="4368"></path><path d="M89.612459 681.487136c-24.114211 0-43.733037 19.617803-43.733037 43.726897s19.618826 43.72792 43.733037 43.72792c24.110117 0 43.724851-19.618826 43.72485-43.72792-0.002047-24.109094-19.614733-43.726897-43.72485-43.726897zM511.370155 178.890296c8.650007 0 17.811668 2.669806 27.469632 7.995092 9.657964 5.340635 16.996093 12.32777 21.98471 20.99415s7.498788 18.323321 7.498788 28.972868c-0.671289 11.320836-3.325745 21.313422-7.995092 29.979802s-11.320836 15.31787-19.986193 19.986193-18.323321 6.987135-28.972868 6.987135c-11.336186 0-21.329794-2.318812-29.996175-6.987135s-15.31787-11.320836-19.986193-19.986193-6.987135-18.48398-6.987135-29.484522c0-10.984169 2.334161-20.818141 7.003508-29.484521 4.652973-8.650007 11.816117-15.637142 21.473057-20.977777 9.657964-5.324262 19.156292-7.995091 28.493961-7.995092zM465.305003 805.457612V437.706947c0-8.650007 4.157693-17.476023 12.503779-26.478048 8.346085-8.985652 20.514219-13.654998 36.535101-13.990643 16.005532-0.320295 27.006074 4.508687 33.017998 14.502296s9.018398 18.643616 9.018397 25.966395V805.457612c0 8.66638-3.837398 17.33276-11.512195 25.998117s-19.186991 12.647041-34.520211 11.975752c-14.678304 0-25.854854-4.493338-33.529651-13.478989s-11.513218-17.156752-11.513218-24.49488z" fill="" p-id="4369"></path></svg>