<?xml version="1.0" standalone="no"?><!DOCTYPE svg PUBLIC "-//W3C//DTD SVG 1.1//EN" "http://www.w3.org/Graphics/SVG/1.1/DTD/svg11.dtd"><svg t="1535978328811" class="icon" style="" viewBox="0 0 1024 1024" version="1.1" xmlns="http://www.w3.org/2000/svg" p-id="2972" xmlns:xlink="http://www.w3.org/1999/xlink" width="200" height="200"><defs><style type="text/css"></style></defs><path d="M768 224a32 32 0 0 1 0-64h32a96 96 0 0 1 96 96v544a96 96 0 0 1-96 96H224a96 96 0 0 1-96-96V256a96 96 0 0 1 96-96h32a32 32 0 0 1 0 64h-32a32 32 0 0 0-32 32v544a32 32 0 0 0 32 32h576a32 32 0 0 0 32-32V256a32 32 0 0 0-32-32z" p-id="2973"></path><path d="M320 128a32 32 0 0 1 64 0v96a32 32 0 0 1-64 0z m320 0a32 32 0 0 1 64 0v96a32 32 0 0 1-64 0z m-192 96a32 32 0 0 1 0-64h128a32 32 0 0 1 0 64z m-64 352a32 32 0 0 1 0-64h256a32 32 0 0 1 0 64z m0-160a32 32 0 0 1 0-64h256a32 32 0 0 1 0 64z m0 320a32 32 0 0 1 0-64h256a32 32 0 0 1 0 64z" p-id="2974"></path></svg>