<?xml version="1.0" standalone="no"?><!DOCTYPE svg PUBLIC "-//W3C//DTD SVG 1.1//EN" "http://www.w3.org/Graphics/SVG/1.1/DTD/svg11.dtd"><svg t="1540973860743" class="icon" style="" viewBox="0 0 1024 1024" version="1.1" xmlns="http://www.w3.org/2000/svg" p-id="2798" xmlns:xlink="http://www.w3.org/1999/xlink" width="200" height="200"><defs><style type="text/css"></style></defs><path d="M475.04896 736.78848c27.31008 16.44544 43.6992 16.44544 76.45184 0l349.53728-169.86624c16.37888-5.46304 21.84704-71.22432 21.84704-93.14304l-54.62016 27.40224-354.97984 175.34464-354.9952-175.34464-54.60992-27.40224c0 21.92384 5.46816 82.21184 21.84704 98.6368 0-5.48864 349.52192 164.37248 349.52192 164.37248zM125.52704 391.58784l344.064 169.87136c27.29984 16.44032 43.68896 16.44032 76.44672 0l344.0896-169.87136c21.82144-10.9568 21.82144-65.75616 0-82.2016L551.5008 117.6064c-27.28448-16.44032-43.68896-16.44032-76.45184 0L125.52704 309.39136c-27.3152 16.44544-27.3152 65.75616 0 82.19648z m387.75296 460.29312l-354.99008-175.35488-54.60992-27.40224c0 21.93408 5.46816 82.2016 21.84704 93.15328l344.064 169.86624c27.29984 16.44544 43.68896 16.44544 76.44672 0l344.0896-169.86624c16.35328-5.48864 21.82144-71.2192 21.82144-93.15328l-54.59968 27.40224-344.06912 175.35488z" fill="" p-id="2799"></path></svg>