<?xml version="1.0" standalone="no"?><!DOCTYPE svg PUBLIC "-//W3C//DTD SVG 1.1//EN" "http://www.w3.org/Graphics/SVG/1.1/DTD/svg11.dtd"><svg t="1535980997172" class="icon" style="" viewBox="0 0 1024 1024" version="1.1" xmlns="http://www.w3.org/2000/svg" p-id="4639" xmlns:xlink="http://www.w3.org/1999/xlink" width="200" height="200"><defs><style type="text/css"></style></defs><path d="M912 512.1c0 10.1-3 20.4-8.9 30.8-41.7 68.5-97.7 123.3-168.1 164.5-70.4 41.2-144.7 61.8-223 61.8s-152.6-20.7-223-62.1S162.6 611 120.9 542.8c-5.9-10.4-8.9-20.7-8.9-30.8 0-10.1 3-20.4 8.9-30.8C162.6 413 218.6 358.3 289 316.9s144.7-62.1 223-62.1 152.6 20.7 223 62.1S861.4 413 903.1 481.2c5.9 10.5 8.9 20.8 8.9 30.9z m-57.1 0c-45.3-70.2-102-122.8-170.1-157.7 18.1 31 27.2 64.4 27.2 100.5 0 55-19.5 102.2-58.7 141.3-39.2 39.2-86.2 58.7-141.3 58.7-55 0-102.2-19.5-141.3-58.7C331.5 557.1 312 510 312 454.9c0-36 9.1-69.5 27.2-100.5C271 389.2 214.3 441.7 169.1 512c39.6 61 89.2 109.6 148.9 145.7 59.6 36.2 124.3 54.3 194 54.3s134.3-18.1 194-54.3c59.6-36 109.3-84.6 148.9-145.6zM527.2 355.8c4.1-4.1 6.3-9.2 6.3-15.2 0-5.9-2.1-11-6.3-15.2-4.1-4.1-9.2-6.3-15.2-6.3-37.2 0-69.1 13.3-95.8 40-26.7 26.7-40 58.6-40 95.8 0 5.9 2.1 11 6.3 15.2 4.1 4.1 9.2 6.3 15.2 6.3 5.9 0 11-2.1 15.2-6.3 4.1-4.1 6.3-9.2 6.3-15.2 0-25.6 9.1-47.5 27.2-65.6 18.1-18.1 40-27.2 65.6-27.2 5.9-0.1 11-2.1 15.2-6.3z" p-id="4640"></path></svg>