<?xml version="1.0" standalone="no"?><!DOCTYPE svg PUBLIC "-//W3C//DTD SVG 1.1//EN" "http://www.w3.org/Graphics/SVG/1.1/DTD/svg11.dtd"><svg t="1535978776005" class="icon" style="" viewBox="0 0 1024 1024" version="1.1" xmlns="http://www.w3.org/2000/svg" p-id="3846" xmlns:xlink="http://www.w3.org/1999/xlink" width="200" height="200"><defs><style type="text/css"></style></defs><path d="M741 291.8h-56v-55c0-9.4-7.6-17-17-17H441v-56h227c40.3 0 73 32.7 73 73v55z" fill="#333333" p-id="3847"></path><path d="M917 920.2H107c-40.3 0-73-32.7-73-73v-671c0-40.3 32.7-73 73-73h292.6l127.1 161H917c40.3 0 73 32.7 73 73v510c0 40.3-32.7 73-73 73z m-810-761c-9.4 0-17 7.6-17 17v671c0 9.4 7.6 17 17 17h810c9.4 0 17-7.6 17-17v-510c0-9.4-7.6-17-17-17H499.6l-127.1-161H107z" fill="#333333" p-id="3848"></path><path d="M129.3 739.8H384v56H129.3z" fill="#333333" p-id="3849"></path></svg>