<?xml version="1.0" standalone="no"?><!DOCTYPE svg PUBLIC "-//W3C//DTD SVG 1.1//EN" "http://www.w3.org/Graphics/SVG/1.1/DTD/svg11.dtd"><svg t="1544620817105" class="icon" style="" viewBox="0 0 1024 1024" version="1.1" xmlns="http://www.w3.org/2000/svg" p-id="2100" xmlns:xlink="http://www.w3.org/1999/xlink" width="200" height="200"><defs><style type="text/css"></style></defs><path d="M939.690667 916.759273c0 17.097697-13.963636 31.030303-31.030303 31.030303H99.917576c-17.128727 0-31.030303-13.932606-31.030303-31.030303v-806.787879c0-17.066667 13.901576-31.030303 31.030303-31.030303h808.711757c17.066667 0 31.030303 13.963636 31.030303 31.030303v806.787879z m-31.030303-899.878788H99.917576c-51.355152 0-93.090909 41.766788-93.090909 93.090909v806.787879c0 51.324121 41.735758 93.090909 93.090909 93.090909h808.711757c51.324121 0 93.090909-41.766788 93.090909-93.090909v-806.787879c0-51.324121-41.766788-93.090909-93.090909-93.090909z" p-id="2101"></path><path d="M321.008485 255.441455a73.75903 73.75903 0 0 1 73.69697 73.696969 73.75903 73.75903 0 0 1-73.69697 73.69697 73.75903 73.75903 0 0 1-73.69697-73.69697 73.75903 73.75903 0 0 1 73.69697-73.696969m0 209.454545a135.912727 135.912727 0 0 0 135.757576-135.757576 135.912727 135.912727 0 0 0-135.757576-135.757576 135.912727 135.912727 0 0 0-135.757576 135.757576 135.912727 135.912727 0 0 0 135.757576 135.757576M866.924606 680.866909l-121.700848-121.700848-0.155152 0.155151a30.595879 30.595879 0 0 0-43.287273-0.155151l-0.217212-0.217213-283.151515 277.317819 0.217212 0.217212a30.75103 30.75103 0 1 0 43.008 43.907879l0.217212 0.217212 261.213091-255.844849 99.979637 99.979637 0.186181-0.155152a30.782061 30.782061 0 0 0 43.535516-43.566545l0.155151-0.155152zM411.67903 761.856a30.782061 30.782061 0 0 0 21.752243-52.565333l0.186182-0.155152-90.670546-90.670545-0.155151 0.155151a30.564848 30.564848 0 0 0-43.070061-0.310303l-0.248242-0.248242-159.030303 153.196606 0.527515 0.558545a30.844121 30.844121 0 0 0 21.752242 52.596364 30.564848 30.564848 0 0 0 22.465939-10.053818l135.416243-130.482425 69.135515 69.135516 0.155152-0.186182a30.72 30.72 0 0 0 21.783272 9.029818" p-id="2102"></path></svg>