<?xml version="1.0" standalone="no"?><!DOCTYPE svg PUBLIC "-//W3C//DTD SVG 1.1//EN" "http://www.w3.org/Graphics/SVG/1.1/DTD/svg11.dtd"><svg t="1532956740792" class="icon" style="" viewBox="0 0 1024 1024" version="1.1" xmlns="http://www.w3.org/2000/svg" p-id="6094" xmlns:xlink="http://www.w3.org/1999/xlink" width="200" height="200"><defs><style type="text/css"></style></defs><path d="M719.36 131.072l11.264 122.368c1.536 14.336 14.336 25.088 28.672 24.064 14.336-1.536 25.088-14.336 24.064-28.672l-11.264-122.368-52.736 4.608z" fill="#425768" p-id="6095"></path><path d="M930.816 219.648l-329.728 0.512L532.48 365.568V965.12h467.456V365.568z" fill="#87C596" p-id="6096"></path><path d="M761.344 647.168c-3.584-1.024-7.168-2.56-10.752-4.608-3.584-1.536-10.24-5.12-19.968-10.752s-17.408-11.776-23.04-18.944c-5.632-7.168-10.24-14.336-13.312-22.016-3.072-7.68-4.096-15.872-3.584-25.088 0.512-15.36 4.608-26.624 12.288-34.816 7.68-8.192 14.848-14.336 22.528-18.432 7.68-4.096 14.848-7.168 22.528-8.704l13.312-3.072V488.448h16.896v12.8c4.608 0 8.192 0.512 10.752 0.512 3.072 0 6.144 1.024 10.24 1.536 4.096 1.024 11.264 2.56 20.992 5.632 9.728 2.56 17.92 8.192 24.576 15.872s9.728 14.848 9.728 20.992c0 6.656-3.072 12.8-8.704 17.408-5.632 5.12-12.288 7.168-19.456 7.68-7.68 0-13.824-2.048-18.944-7.168-5.12-4.608-7.68-10.24-7.168-16.384 0-5.12 2.048-9.728 5.632-14.336 3.584-4.096 5.632-6.656 5.632-7.68 0-2.048-3.072-4.096-8.704-6.656s-10.752-4.096-14.848-4.608l-10.24-1.024v94.208c8.192 3.072 17.408 6.656 27.136 10.24s18.944 7.168 27.136 11.264c8.192 4.096 15.872 10.24 22.528 18.944 6.656 8.704 10.24 17.92 10.24 27.648 0 9.728-1.536 18.944-4.096 27.136-3.072 8.192-7.168 15.36-12.8 21.504-5.632 6.144-11.776 10.752-18.944 14.336-6.656 3.072-13.824 6.144-20.992 7.68s-14.336 3.584-21.504 4.096l-9.216 1.024v14.336h-16.896v-14.336c-5.632-1.024-10.752-1.536-14.336-2.56-4.096-1.024-8.704-2.048-13.824-4.096-5.12-2.048-10.24-4.096-14.336-6.144s-8.704-5.12-13.312-8.192c-4.608-3.584-9.216-7.68-13.312-13.824s-6.656-11.264-6.656-17.408c0-6.144 1.024-11.264 2.56-15.36 2.048-4.608 5.12-8.192 9.216-10.752s8.704-3.584 14.848-3.584c6.656 0 11.776 2.048 15.872 5.12 4.096 3.072 6.656 7.168 6.656 11.264 0.512 4.096 0 7.68-1.024 9.728-1.024 2.048-2.56 3.584-4.096 5.12l-8.192 5.12c-2.048 1.536-3.584 3.072-4.608 5.12-1.024 2.048 1.536 6.144 7.168 11.776 4.096 4.096 8.704 7.68 13.312 9.728s8.704 4.096 11.776 4.096l11.776 2.048V647.168z m0-132.608c-4.096 1.024-7.68 2.048-11.264 3.072-3.584 1.024-7.68 3.072-11.264 6.144-4.096 3.072-7.68 7.168-10.752 13.312-3.072 5.632-4.608 12.288-4.096 18.944 0 9.728 2.56 17.408 7.68 23.552s11.776 11.264 19.968 15.36l9.728 5.12V514.56z m16.384 225.28c5.632-1.024 12.288-2.048 20.48-4.096 7.68-2.048 14.336-6.656 19.456-13.824 5.12-7.168 7.68-14.848 7.68-23.552 0-8.704-1.536-15.36-5.12-19.968s-8.192-8.704-14.848-12.288c-6.144-3.584-12.8-6.144-18.944-8.704l-9.216-3.584v86.016z" fill="#FFFFFF" p-id="6097"></path><path d="M830.464 296.448l-253.952-210.432-145.92 68.096-382.976 461.824 359.936 298.496 382.976-461.824z" fill="#87C596" p-id="6098"></path><path d="M644.096 263.168m-30.208 0a30.208 30.208 0 1 0 60.416 0 30.208 30.208 0 1 0-60.416 0Z" fill="#528963" p-id="6099"></path><path d="M719.36 131.072l-78.848 94.72c-9.216 11.264-7.68 27.648 3.584 37.376 11.264 9.216 27.648 7.68 37.376-3.584l78.848-94.72-40.96-33.792z" fill="#425768" p-id="6100"></path><path d="M427.008 517.12c-2.048-3.072-3.584-6.656-5.632-10.24-2.048-3.584-4.608-10.752-8.192-20.992-3.584-10.24-5.632-19.968-5.632-29.184 0-9.216 1.536-17.408 4.096-25.088 2.56-7.68 7.168-14.848 13.312-21.504 10.24-11.264 20.992-17.408 31.744-18.944 10.752-1.536 20.48-1.536 29.184 0 8.192 1.536 15.872 4.096 22.528 7.68l12.288 6.144 7.68-9.728 12.8 10.752-8.192 9.728c3.584 3.072 6.144 5.12 8.192 7.168 2.048 2.048 4.608 4.608 7.168 7.68 2.56 3.072 6.656 9.216 12.8 17.408s8.704 17.92 8.704 28.16-2.048 17.92-5.632 22.528c-4.608 5.12-10.24 7.68-17.92 8.192-7.168 0.512-13.824-2.048-19.968-6.656-6.144-4.608-9.216-10.752-10.24-17.408-1.024-6.656 1.024-12.8 5.12-17.408 3.584-4.096 7.68-6.656 13.312-7.168 5.632-1.024 8.704-1.536 9.216-2.56 1.024-1.536 0.512-5.12-2.56-10.24-2.56-5.632-5.632-9.728-8.704-13.312L525.312 424.96 465.408 496.64c4.096 7.68 9.216 15.872 14.336 25.088 5.12 9.216 9.728 17.92 13.824 26.112 3.584 8.192 5.632 17.92 5.12 29.184-0.512 11.264-3.584 20.48-9.728 28.16s-12.8 13.824-20.48 17.92c-7.68 4.608-15.36 7.168-23.552 8.704-8.192 1.024-16.384 0.512-23.552-1.024-7.168-2.048-14.336-4.096-21.504-7.168-6.656-3.072-13.312-6.656-18.944-10.752l-7.68-5.12-9.216 11.264-12.8-10.752 9.216-11.264c-4.096-4.096-7.168-8.192-9.728-11.264-2.56-3.072-5.12-7.168-7.68-12.288s-5.12-9.728-7.168-13.824c-2.048-4.608-3.584-9.728-4.608-14.848-1.536-5.632-2.048-11.776-1.536-18.944s2.048-13.312 5.632-17.92c3.584-4.608 7.68-8.192 11.776-10.24 4.608-2.048 9.216-3.072 13.824-2.56 4.608 0.512 9.216 2.56 13.824 6.656 5.12 4.096 8.192 9.216 9.216 14.336 1.024 5.12 0.512 9.728-2.048 13.312s-4.608 5.632-7.168 7.168c-2.048 1.024-4.096 1.536-6.656 1.024l-9.216-1.536c-2.56 0-4.608 0-7.168 1.024-2.048 1.024-3.072 5.632-2.048 13.824 0.512 5.632 2.048 11.264 4.096 16.384s4.096 8.704 6.656 10.752l7.68 9.216L427.008 517.12z m-46.592 81.92c5.12 3.072 11.264 6.144 18.432 9.728s15.36 4.096 24.064 2.048c8.704-2.048 15.36-6.656 20.992-12.8 5.632-6.656 8.704-12.8 8.704-18.944 0.512-6.144-1.024-12.288-3.584-18.944-2.56-6.656-5.632-12.8-8.704-18.944l-4.608-8.704-55.296 66.56z m131.072-184.32c-3.584-1.536-7.168-3.584-10.752-4.608-3.584-1.536-7.68-2.048-12.8-2.56-5.12 0-10.752 1.024-16.384 3.584-6.144 2.56-11.264 6.656-15.36 11.776-6.144 7.68-9.216 15.36-8.704 23.04 0 7.68 2.048 15.872 5.632 24.576l4.096 10.24L511.488 414.72z" fill="#FFFFFF" p-id="6101"></path></svg>