<?xml version="1.0" standalone="no"?><!DOCTYPE svg PUBLIC "-//W3C//DTD SVG 1.1//EN" "http://www.w3.org/Graphics/SVG/1.1/DTD/svg11.dtd"><svg t="1532957246673" class="icon" style="" viewBox="0 0 1024 1024" version="1.1" xmlns="http://www.w3.org/2000/svg" p-id="7964" xmlns:xlink="http://www.w3.org/1999/xlink" width="200" height="200"><defs><style type="text/css"></style></defs><path d="M194.24 221.568L193.664 159.146667l-0.192-20.458667a31.978667 31.978667 0 0 0-9.728-22.72 33.002667 33.002667 0 0 0-46.442667 0.426667c-6.08 6.165333-9.386667 14.293333-9.301333 22.890666l1.706667 182.912c0.064 8.618667 3.52 16.682667 9.728 22.741334a31.936 31.936 0 0 0 20.778666 9.216 32.96 32.96 0 0 0 25.642667-9.642667c2.666667-2.688 4.757333-5.76 7.061333-10.432l1.173334-2.026667a344.085333 344.085333 0 0 1 188.992-144.213333c177.792-55.104 368.149333 40.234667 429.653333 215.210667l3.626667 10.773333c0.554667 1.664 1.344 3.584 1.834666 4.522667l0.576 1.024c4.202667 6.976 9.173333 11.434667 15.274667 14.165333a32.704 32.704 0 0 0 45.845333-24.32 31.573333 31.573333 0 0 0-1.002666-14.464l-0.896-2.944C809.173333 178.218667 578.965333 59.306667 363.498667 126.08a409.941333 409.941333 0 0 0-118.613334 59.008l-50.645333 36.48zM814.08 790.912L814.613333 853.333333l0.213334 20.458667c0.064 8.597333 3.52 16.682667 9.728 22.72a33.002667 33.002667 0 0 0 46.421333-0.426667c6.08-6.144 9.386667-14.293333 9.301333-22.890666l-1.706666-182.912a31.978667 31.978667 0 0 0-9.706667-22.741334c-5.013333-4.906667-11.52-8.106667-17.898667-8.896l-2.88-0.32a32.96 32.96 0 0 0-25.664 9.642667c-2.645333 2.688-4.736 5.76-7.04 10.432l-1.194666 2.026667a344.085333 344.085333 0 0 1-188.992 144.213333C447.424 879.786667 257.066667 784.426667 195.562667 609.450667l-3.626667-10.773334a34.261333 34.261333 0 0 0-1.813333-4.501333l-0.597334-1.045333c-4.202667-6.976-9.173333-11.434667-15.253333-14.144a32.704 32.704 0 0 0-45.845333 24.32c-0.810667 4.885333-0.469333 9.770667 0.981333 14.464l0.917333 2.922666C199.125333 834.261333 429.354667 953.173333 644.821333 886.4a409.941333 409.941333 0 0 0 118.613334-59.008l50.624-36.48z" fill="#00C1DE" p-id="7965"></path><path d="M408.362667 453.781333h195.754666a24.362667 24.362667 0 0 0 24.128-20.992l0.170667-1.386666a24.106667 24.106667 0 0 0-7.04-18.986667 24.362667 24.362667 0 0 0-17.237333-7.082667H408.32c-6.229333 0-12.458667 2.346667-17.216 7.104a24.106667 24.106667 0 0 0 0 34.261334c4.757333 4.714667 10.986667 7.082667 17.237333 7.082666zM387.2 531.477333a24.213333 24.213333 0 0 0 21.162667 12.266667h195.754666a24.362667 24.362667 0 0 0 24.128-21.013333l0.170667-1.365334a24.106667 24.106667 0 0 0-7.04-18.986666 24.362667 24.362667 0 0 0-17.237333-7.104H408.32c-6.229333 0-12.458667 2.368-17.216 7.104a24.106667 24.106667 0 0 0-3.946667 29.098666zM387.2 621.418667a24.213333 24.213333 0 0 0 21.162667 12.266666h195.754666a24.362667 24.362667 0 0 0 24.128-20.992l0.170667-1.386666a24.106667 24.106667 0 0 0-7.04-18.986667 24.362667 24.362667 0 0 0-17.237333-7.104H408.32c-6.229333 0-12.458667 2.368-17.216 7.104a24.106667 24.106667 0 0 0-3.946667 29.098667z" fill="#00C1DE" p-id="7966"></path></svg>