<?xml version="1.0" standalone="no"?><!DOCTYPE svg PUBLIC "-//W3C//DTD SVG 1.1//EN" "http://www.w3.org/Graphics/SVG/1.1/DTD/svg11.dtd"><svg t="1540977403921" class="icon" style="" viewBox="0 0 1024 1024" version="1.1" xmlns="http://www.w3.org/2000/svg" p-id="1624" xmlns:xlink="http://www.w3.org/1999/xlink" width="200" height="200"><defs><style type="text/css"></style></defs><path d="M510.72 16.64C237.14176 16.64 15.36 238.42432 15.36 512.00512c0 273.58336 221.78176 495.36896 495.36 495.36896 273.58464 0 495.37024-221.7856 495.37024-495.36896C1006.09024 238.42432 784.30464 16.64 510.72 16.64z m0 941.43744c-246.3552 0-446.0672-199.71328-446.0672-446.07232C64.6528 265.64992 264.3648 65.93152 510.72 65.93152c246.36544 0 446.07744 199.7184 446.07744 446.0736 0 246.35904-199.712 446.07232-446.07744 446.07232z m0 0" fill="" p-id="1625"></path><path d="M251.27168 509.7088c0 27.8592 22.58688 50.4448 50.4448 50.4448s50.43968-22.58688 50.43968-50.4448c0-27.85792-22.58176-50.43968-50.43968-50.43968s-50.4448 22.58176-50.4448 50.43968z m211.66848 0c0 27.8592 22.58176 50.4448 50.43968 50.4448 27.8592 0 50.4448-22.58688 50.4448-50.4448 0-27.85792-22.58688-50.43968-50.4448-50.43968-27.85792 0-50.43968 22.58176-50.43968 50.43968z m211.66464 0c0 27.8592 22.58688 50.4448 50.44352 50.4448 27.8592 0 50.43968-22.58688 50.43968-50.4448 0-27.85792-22.58176-50.43968-50.43968-50.43968-27.85664 0-50.44352 22.58176-50.44352 50.43968z m0 0" fill="" p-id="1626"></path></svg>