<?xml version="1.0" standalone="no"?><!DOCTYPE svg PUBLIC "-//W3C//DTD SVG 1.1//EN" "http://www.w3.org/Graphics/SVG/1.1/DTD/svg11.dtd"><svg t="1544621077001" class="icon" style="" viewBox="0 0 1024 1024" version="1.1" xmlns="http://www.w3.org/2000/svg" p-id="3586" xmlns:xlink="http://www.w3.org/1999/xlink" width="200" height="200"><defs><style type="text/css"></style></defs><path d="M912 645.3c0 44.2-15.6 81.8-46.9 113.1-31.3 31.3-69 46.8-113.1 46.8H298.7c-51.3 0-95.3-18.2-131.9-54.8C130.3 713.9 112 670 112 618.6c0-36.6 9.8-70.2 29.6-100.6 19.7-30.4 45.7-53.1 77.9-68.1-0.5-7.8-0.9-13.8-0.9-17.9 0-58.9 20.9-109.2 62.5-150.8s91.9-62.5 150.8-62.5c43.9 0 83.7 12.3 119.3 36.6 35.7 24.4 61.7 56.4 78.2 95.9 19.5-17.3 42.5-25.8 69.1-25.8 29.4 0 54.6 10.4 75.4 31.3s31.3 46 31.3 75.4c0 20.9-5.7 40-17.1 57.5 35.8 8.3 65.4 27 88.8 56.1 23.4 28.8 35.1 62.1 35.1 99.6z" p-id="3587"></path></svg>