<?xml version="1.0" standalone="no"?><!DOCTYPE svg PUBLIC "-//W3C//DTD SVG 1.1//EN" "http://www.w3.org/Graphics/SVG/1.1/DTD/svg11.dtd"><svg t="1532957577270" class="icon" style="" viewBox="0 0 1024 1024" version="1.1" xmlns="http://www.w3.org/2000/svg" p-id="14471" xmlns:xlink="http://www.w3.org/1999/xlink" width="200" height="200"><defs><style type="text/css"></style></defs><path d="M941.6 992c-12.9 0-25.9-4.9-35.7-14.8L703.8 775.1c-19.7-19.7-19.7-51.7 0-71.4 19.7-19.7 51.7-19.7 71.4 0l202.1 202.1c19.7 19.7 19.7 51.7 0 71.4-9.8 9.9-22.7 14.8-35.7 14.8z" fill="#4585F5" p-id="14472"></path><path d="M261 499.4c-20.9 0-37.9-17-37.9-37.9C223.2 330 319.5 223 438 223c20.9 0 37.9 17 37.9 37.9s-17 37.9-37.9 37.9c-76.7 0-139 73-139 162.7-0.1 20.9-17 37.9-38 37.9z" fill="#29CCB6" p-id="14473"></path><path d="M461.6 890.9c-236.8 0-429.5-192.7-429.5-429.5S224.8 32 461.6 32s429.5 192.7 429.5 429.5-192.6 429.4-429.5 429.4z m0-757.8c-181.1 0-328.4 147.3-328.4 328.4s147.3 328.4 328.4 328.4S790 642.6 790 461.5 642.7 133.1 461.6 133.1z" fill="#4585F5" p-id="14474"></path></svg>