<?xml version="1.0" standalone="no"?><!DOCTYPE svg PUBLIC "-//W3C//DTD SVG 1.1//EN" "http://www.w3.org/Graphics/SVG/1.1/DTD/svg11.dtd"><svg t="1540975751838" class="icon" style="" viewBox="0 0 1024 1024" version="1.1" xmlns="http://www.w3.org/2000/svg" p-id="3469" xmlns:xlink="http://www.w3.org/1999/xlink" width="200" height="200"><defs><style type="text/css"></style></defs><path d="M992 384l-96 0c-1.664 0-3.28 0.256-4.88 0.496-5.84-17.376-12.816-34.224-20.88-50.4 1.28-0.976 2.592-1.936 3.776-3.088l67.872-67.904c12.496-12.464 12.496-32.752 0-45.216l-135.744-135.776c-12.496-12.496-32.784-12.496-45.248 0l-67.904 67.904c-1.152 1.152-2.128 2.464-3.056 3.744-16.224-8.064-33.056-15.008-50.432-20.88C639.744 131.28 640 129.664 640 128L640 32c0-17.664-14.336-32-32-32L416 0c-17.664 0-32 14.336-32 32l0 96c0 1.664 0.256 3.28 0.496 4.88-17.376 5.84-34.224 12.816-50.4 20.88-0.976-1.28-1.936-2.592-3.088-3.744l-67.904-67.904c-12.464-12.496-32.752-12.496-45.216 0l-135.776 135.776c-12.496 12.464-12.496 32.752 0 45.216l67.904 67.904c1.152 1.152 2.464 2.128 3.744 3.088-8.064 16.192-15.008 33.024-20.88 50.4C131.28 384.256 129.664 384 128 384L32 384c-17.664 0-32 14.336-32 32l0 192c0 17.664 14.336 32 32 32l96 0c1.664 0 3.28-0.256 4.88-0.496 5.84 17.376 12.816 34.224 20.88 50.432-1.28 0.944-2.592 1.904-3.744 3.056l-67.904 67.904c-12.496 12.464-12.496 32.752 0 45.248l135.776 135.744c12.464 12.496 32.752 12.496 45.216 0l67.904-67.872c1.152-1.184 2.128-2.496 3.088-3.776 16.192 8.064 33.024 15.024 50.4 20.88C384.256 892.72 384 894.336 384 896l0 96c0 17.664 14.336 32 32 32l192 0c17.664 0 32-14.336 32-32l0-96c0-1.664-0.256-3.28-0.496-4.88 17.376-5.84 34.224-12.816 50.432-20.88 0.944 1.28 1.904 2.592 3.056 3.776l67.904 67.872c12.464 12.496 32.752 12.496 45.248 0l135.744-135.744c12.496-12.496 12.496-32.784 0-45.248l-67.872-67.904c-1.184-1.152-2.496-2.128-3.776-3.056 8.064-16.224 15.024-33.056 20.88-50.432C892.72 639.744 894.336 640 896 640l96 0c17.664 0 32-14.336 32-32L1024 416C1024 398.336 1009.664 384 992 384zM512 800c-159.024 0-288-128.944-288-288 0-159.024 128.976-288 288-288 159.088 0 288 128.976 288 288C800 671.056 671.088 800 512 800z" p-id="3470"></path><path d="M512 512m-160 0a10 10 0 1 0 320 0 10 10 0 1 0-320 0Z" p-id="3471"></path></svg>