<?xml version="1.0" standalone="no"?><!DOCTYPE svg PUBLIC "-//W3C//DTD SVG 1.1//EN" "http://www.w3.org/Graphics/SVG/1.1/DTD/svg11.dtd"><svg t="1540973459523" class="icon" style="" viewBox="0 0 1024 1024" version="1.1" xmlns="http://www.w3.org/2000/svg" p-id="1940" xmlns:xlink="http://www.w3.org/1999/xlink" width="200" height="200"><defs><style type="text/css"></style></defs><path d="M987.194281 454.107955 631.830488 98.808157c-16.638679-16.638679-36.861074-27.133846-58.171382-32.509419L575.962923 63.99492 511.968002 0 0.008639 0l0 511.959363 63.99492 63.99492 2.303817-2.303817c5.375573 21.246313 15.87074 41.532703 32.509419 58.171382l355.363793 355.363793c49.084104 49.084104 128.62979 49.084104 177.649899 0l355.363793-355.363793C1036.214391 582.737746 1036.214391 503.192059 987.194281 454.107955zM853.892863 587.409375l-266.538844 266.538844c-24.510054 24.510054-64.314895 24.510054-88.82495 0L232.054221 587.409375C222.262998 577.554157 217.463379 565.203136 215.479537 552.468147L191.993401 575.954284 127.99848 447.964443 127.99848 127.989841l319.974602 0 127.989841 63.99492L552.476787 215.470897c12.734989 1.983843 25.150004 6.719467 34.941226 16.574684l266.538844 266.538844C878.466912 523.094479 878.466912 562.835324 853.892863 587.409375zM319.983241 255.979682C284.658045 255.979682 255.988321 284.649406 255.988321 319.974602c0 35.325196 28.669724 63.99492 63.99492 63.99492 35.325196 0 63.99492-28.669724 63.99492-63.99492C383.978162 284.649406 355.308438 255.979682 319.983241 255.979682z" p-id="1941"></path></svg>