<?xml version="1.0" standalone="no"?><!DOCTYPE svg PUBLIC "-//W3C//DTD SVG 1.1//EN" "http://www.w3.org/Graphics/SVG/1.1/DTD/svg11.dtd"><svg t="1535869566099" class="icon" style="" viewBox="0 0 1291 1024" version="1.1" xmlns="http://www.w3.org/2000/svg" p-id="3006" xmlns:xlink="http://www.w3.org/1999/xlink" width="252.1484375" height="200"><defs><style type="text/css"></style></defs><path d="M315.054251 913.731067h-1.260216c-5.828501 0-11.499474 0-17.170448-1.102689C124.761579 896.718146 0.000158 756.20402 0.000158 577.568349a339.943367 339.943367 0 0 1 321.985283-339.78584 408.467633 408.467633 0 0 1 751.561541 22.053787A339.470786 339.470786 0 0 1 1291.721942 577.568349C1291.721942 760.142196 1156.87879 904.436971 978.243119 913.731067H976.667848a31.505409 31.505409 0 0 1-1.57527-63.010819A266.850817 266.850817 0 0 0 1228.711123 577.568349 276.30244 276.30244 0 0 0 1039.678667 315.128289l-15.752705-5.513447-5.198392-14.492488a345.456814 345.456814 0 0 0-647.436163-14.177434l-7.403771 20.005935h-25.519382A276.617494 276.617494 0 0 0 63.010976 577.568349c0 144.924883 100.659783 259.289519 239.126057 272.04921l14.019908 0.945162A31.505409 31.505409 0 0 1 315.054251 913.731067z" fill="" p-id="3007"></path><path d="M613.252951 834.967544a31.505409 31.505409 0 0 0-43.004884-11.499475L535.592117 843.474004V803.462134a31.505409 31.505409 0 0 0-63.010819 0v40.01187l-34.65595-20.005935a31.505409 31.505409 0 1 0-31.505409 54.504359L441.075889 897.978362l-34.65595 20.005935a31.505409 31.505409 0 0 0 31.505409 54.504359l34.65595-20.005935V992.494591a31.505409 31.505409 0 0 0 63.010819 0v-40.01187l34.65595 20.005935a31.505409 31.505409 0 0 0 31.50541-54.504359L567.097526 897.978362l34.655951-20.005934a31.505409 31.505409 0 0 0 11.499474-43.004884zM885.302161 917.984297L850.646211 897.978362l34.65595-20.005934a31.505409 31.505409 0 0 0-31.505409-54.504359L819.140801 843.474004V803.462134a31.505409 31.505409 0 0 0-63.010818 0v40.01187l-34.655951-20.005935a31.505409 31.505409 0 1 0-31.505409 54.504359L724.624573 897.978362l-34.65595 20.005935a31.505409 31.505409 0 1 0 31.505409 54.504359l34.655951-20.005935V992.494591a31.505409 31.505409 0 0 0 63.010818 0v-40.01187l34.655951 20.005935a31.505409 31.505409 0 0 0 31.505409-54.504359z" fill="" p-id="3008"></path></svg>