<?xml version="1.0" standalone="no"?><!DOCTYPE svg PUBLIC "-//W3C//DTD SVG 1.1//EN" "http://www.w3.org/Graphics/SVG/1.1/DTD/svg11.dtd"><svg t="1535869423307" class="icon" style="" viewBox="0 0 1308 1024" version="1.1" xmlns="http://www.w3.org/2000/svg" p-id="1100" xmlns:xlink="http://www.w3.org/1999/xlink" width="255.46875" height="200"><defs><style type="text/css"></style></defs><path d="M282.453333 684.657778a284.444444 284.444444 0 1 1 469.333334-295.822222l-53.617778 18.915555A227.555556 227.555556 0 0 0 256 483.555556a225.564444 225.564444 0 0 0 66.702222 160.853333zM483.555556 0a28.444444 28.444444 0 0 0-28.444445 28.444444v85.333334a28.444444 28.444444 0 0 0 56.888889 0V28.444444a28.444444 28.444444 0 0 0-28.444444-28.444444zM181.902222 142.222222A28.444444 28.444444 0 0 0 142.222222 181.902222L201.955556 241.777778a28.444444 28.444444 0 0 0 39.822222-39.822222zM142.222222 483.555556a28.444444 28.444444 0 0 0-28.444444-28.444445H28.444444a28.444444 28.444444 0 0 0 0 56.888889h85.333334a28.444444 28.444444 0 0 0 28.444444-28.444444zM201.955556 725.333333L142.222222 785.208889A28.444444 28.444444 0 0 0 181.902222 824.888889L241.777778 765.155556a28.444444 28.444444 0 1 0-39.822222-39.822223zM765.155556 241.777778l59.733333-59.875556A28.444444 28.444444 0 0 0 785.208889 142.222222L725.333333 201.955556a28.444444 28.444444 0 0 0 39.822223 39.822222z" fill="" p-id="1101"></path><path d="M1080.888889 1024H455.111111a227.555556 227.555556 0 1 1 56.888889-447.857778A298.666667 298.666667 0 0 1 1077.76 568.888889H1080.888889a227.555556 227.555556 0 0 1 0 455.111111zM455.111111 625.777778a170.666667 170.666667 0 0 0 0 341.333333h625.777778a170.666667 170.666667 0 0 0 0-341.333333 178.773333 178.773333 0 0 0-20.195556 1.28l-24.604444 2.844444-6.257778-23.751111a241.777778 241.777778 0 0 0-469.333333 12.373333l-7.111111 33.706667-31.715556-13.226667A169.813333 169.813333 0 0 0 455.111111 625.777778z" fill="" p-id="1102"></path></svg>