<?xml version="1.0" standalone="no"?><!DOCTYPE svg PUBLIC "-//W3C//DTD SVG 1.1//EN" "http://www.w3.org/Graphics/SVG/1.1/DTD/svg11.dtd"><svg t="1535869625046" class="icon" style="" viewBox="0 0 1222 1024" version="1.1" xmlns="http://www.w3.org/2000/svg" p-id="3827" xmlns:xlink="http://www.w3.org/1999/xlink" width="238.671875" height="200"><defs><style type="text/css"></style></defs><path d="M397.706464 706.192705a29.813067 29.813067 0 0 0-36.521007 21.167277l-69.464446 259.075553A29.813067 29.813067 0 0 0 313.037354 1022.956543a29.813067 29.813067 0 0 0 36.521007-21.018213l69.315381-259.224618a29.813067 29.813067 0 0 0-21.167278-36.521007zM520.685366 706.192705a29.813067 29.813067 0 0 0-36.521007 21.167277l-69.464446 259.075553a29.813067 29.813067 0 0 0 21.167277 36.521008 29.813067 29.813067 0 0 0 36.521008-21.018213l69.315381-259.224618a29.813067 29.813067 0 0 0-21.018213-36.521007zM643.664268 706.192705a29.813067 29.813067 0 0 0-36.521007 21.167277l-69.464446 259.075553a29.813067 29.813067 0 0 0 21.167277 36.521008 29.813067 29.813067 0 0 0 36.521007-21.018213l69.315382-259.224618a29.813067 29.813067 0 0 0-21.018213-36.521007zM766.64317 706.192705A29.813067 29.813067 0 0 0 730.420294 727.359982l-69.762578 259.075553a29.813067 29.813067 0 0 0 21.167278 36.521008 29.813067 29.813067 0 0 0 36.521007-21.018213l69.315381-259.224618a29.813067 29.813067 0 0 0-21.018212-36.521007zM889.622072 706.192705a29.813067 29.813067 0 0 0-36.521007 21.167277l-69.464447 259.075553A29.813067 29.813067 0 0 0 804.952961 1022.956543a29.813067 29.813067 0 0 0 36.521008-21.018213l69.315381-259.224618a29.813067 29.813067 0 0 0-21.167278-36.521007z" fill="" p-id="3828"></path><path d="M258.479441 860.028131a32.645308 32.645308 0 0 1-5.366352 0 302.453566 302.453566 0 0 1-32.943439-7.751398C88.544958 812.923485 0.000149 690.242714 0.000149 546.54373a321.682994 321.682994 0 0 1 304.689546-321.533929 386.526415 386.526415 0 0 1 711.190716 20.869147A321.235798 321.235798 0 0 1 1222.335901 546.54373a315.720381 315.720381 0 0 1-258.032096 313.037205 29.813067 29.813067 0 1 1-10.434573-58.731742A253.411071 253.411071 0 0 0 1162.709767 546.54373 261.460599 261.460599 0 0 0 983.831364 298.200881l-14.906534-5.217287-4.919156-13.714011a326.900281 326.900281 0 0 0-612.658529-13.41588l-7.006071 18.931298h-24.148584A261.758729 261.758729 0 0 0 59.626283 546.54373C59.626283 663.560019 130.879514 763.284728 237.014033 794.588449a257.883031 257.883031 0 0 0 26.682695 6.409809 29.813067 29.813067 0 0 1-5.217287 59.626134z" fill="" p-id="3829"></path></svg>