<?xml version="1.0" standalone="no"?><!DOCTYPE svg PUBLIC "-//W3C//DTD SVG 1.1//EN" "http://www.w3.org/Graphics/SVG/1.1/DTD/svg11.dtd"><svg t="1535869593230" class="icon" style="" viewBox="0 0 1222 1024" version="1.1" xmlns="http://www.w3.org/2000/svg" p-id="3475" xmlns:xlink="http://www.w3.org/1999/xlink" width="238.671875" height="200"><defs><style type="text/css"></style></defs><path d="M525.924575 704.823682a29.755272 29.755272 0 0 0-36.450208 21.126243l-69.329783 258.57331a29.755272 29.755272 0 0 0 57.427674 14.877636l69.329783-258.722087a29.755272 29.755272 0 0 0-20.977466-35.855102zM652.384479 704.823682a29.755272 29.755272 0 0 0-36.450208 21.126243l-69.329782 258.57331a29.755272 29.755272 0 1 0 57.427674 14.877636l69.329783-258.722087a29.755272 29.755272 0 0 0-20.977467-35.855102zM778.844383 704.823682a29.755272 29.755272 0 0 0-36.450207 21.126243l-69.329783 258.57331a29.755272 29.755272 0 1 0 57.427674 14.877636l69.329783-258.722087a29.755272 29.755272 0 0 0-20.977467-35.855102z" fill="" p-id="3476"></path><path d="M872.871042 862.97295a29.755272 29.755272 0 0 1 0-59.510543h32.284469A253.961243 253.961243 0 0 0 1160.455742 545.484202 260.953732 260.953732 0 0 0 981.924112 297.62279l-14.877636-5.207173-4.909619-13.687425a326.266553 326.266553 0 0 0-611.470832-13.389872l-6.992489 18.894598h-24.10177A261.251285 261.251285 0 0 0 59.510692 545.484202C59.510692 692.475244 167.075999 803.462407 309.752527 803.462407h57.278897a29.755272 29.755272 0 0 1 0 59.510543h-57.278897C135.98174 862.97295 0.000149 723.569503 0.000149 545.484202a321.059381 321.059381 0 0 1 304.098876-320.910604 385.777096 385.777096 0 0 1 709.812004 20.82869A320.613052 320.613052 0 0 1 1219.966285 545.484202 312.430352 312.430352 0 0 1 905.155511 862.97295h-32.284469z" fill="" p-id="3477"></path></svg>