<?xml version="1.0" standalone="no"?><!DOCTYPE svg PUBLIC "-//W3C//DTD SVG 1.1//EN" "http://www.w3.org/Graphics/SVG/1.1/DTD/svg11.dtd"><svg t="1535869631870" class="icon" style="" viewBox="0 0 1182 1024" version="1.1" xmlns="http://www.w3.org/2000/svg" p-id="3944" xmlns:xlink="http://www.w3.org/1999/xlink" width="230.859375" height="200"><defs><style type="text/css"></style></defs><path d="M288.431714 836.519479h-1.153726c-5.335984 0-10.527752 0-15.71952-1.00951C114.219046 820.944175 0.000144 692.303694 0.000144 528.762994a311.217664 311.217664 0 0 1 294.777065-311.073449 373.951531 373.951531 0 0 1 688.053511 20.19021A310.785017 310.785017 0 0 1 1182.569582 528.762994C1182.569582 695.909089 1059.12087 828.010748 895.58017 836.519479a28.843157 28.843157 0 0 1-30.285315-27.400999 28.843157 28.843157 0 0 1 27.400999-30.285315A244.30154 244.30154 0 0 0 1124.883268 528.762994 252.954487 252.954487 0 0 0 951.824326 288.499496l-14.421578-5.047553-4.759121-13.267852a316.265217 316.265217 0 0 0-592.726877-12.97942l-6.778142 18.315404h-23.362957A253.242919 253.242919 0 0 0 57.686458 528.762994c0 132.678522 92.153887 237.379182 218.919562 249.060661l12.835205 0.865295A28.843157 28.843157 0 0 1 288.431714 836.519479z" fill="" p-id="3945"></path><path d="M561.432196 850.941058a28.843157 28.843157 0 0 0-39.37091-10.527752L490.333814 858.72871V822.097901a28.843157 28.843157 0 0 0-57.686314 0v36.630809l-31.727473-18.315404a28.843157 28.843157 0 1 0-28.843157 49.898661L403.804343 908.627372l-31.727473 18.315405a28.843157 28.843157 0 1 0 28.843157 49.898661l31.727473-18.315404V995.156843a28.843157 28.843157 0 0 0 57.686314 0v-36.630809l31.727472 18.315404a28.843157 28.843157 0 0 0 28.843157-49.898661L519.176971 908.627372l31.727472-18.315405a28.843157 28.843157 0 0 0 10.527753-39.370909zM810.492857 926.942777L778.765384 908.627372l31.727473-18.315405a28.843157 28.843157 0 0 0-28.843157-49.898661L749.922227 858.72871V822.097901a28.843157 28.843157 0 0 0-57.686314 0v36.630809l-31.727473-18.315404a28.843157 28.843157 0 1 0-28.843157 49.898661L663.392756 908.627372l-31.727473 18.315405a28.843157 28.843157 0 0 0 28.843157 49.898661l31.727473-18.315404V995.156843a28.843157 28.843157 0 0 0 57.686314 0v-36.630809l31.727473 18.315404a28.843157 28.843157 0 0 0 28.843157-49.898661zM620.12802 756.623934l19.1807 11.104616a28.843157 28.843157 0 0 0 28.843157-49.898662L648.971177 706.725273l19.1807-11.104616a28.843157 28.843157 0 0 0-28.843157-49.898661l-19.1807 11.104615V634.61738a28.843157 28.843157 0 0 0-57.686314 0v22.209231l-19.180699-11.104615a28.843157 28.843157 0 1 0-28.843157 49.898661L533.598549 706.725273l-19.180699 11.104615a28.843157 28.843157 0 1 0 28.843157 49.898662l19.180699-11.104616V778.833165a28.843157 28.843157 0 0 0 57.686314 0z" fill="" p-id="3946"></path></svg>