<?xml version="1.0" standalone="no"?><!DOCTYPE svg PUBLIC "-//W3C//DTD SVG 1.1//EN" "http://www.w3.org/Graphics/SVG/1.1/DTD/svg11.dtd"><svg t="1535869513424" class="icon" style="" viewBox="0 0 1291 1024" version="1.1" xmlns="http://www.w3.org/2000/svg" p-id="2298" xmlns:xlink="http://www.w3.org/1999/xlink" width="252.1484375" height="200"><defs><style type="text/css"></style></defs><path d="M958.394711 913.731067H866.398915a31.505409 31.505409 0 0 1 0-63.010819h91.995796A268.898669 268.898669 0 0 0 1228.711123 577.568349 276.30244 276.30244 0 0 0 1039.678667 315.128289l-15.752705-5.513447-5.198392-14.492488a345.456814 345.456814 0 0 0-647.436163-14.177434l-7.403771 20.005935h-25.519382A276.617494 276.617494 0 0 0 63.010976 577.568349C63.010976 733.205071 176.903031 850.720248 327.971469 850.720248H441.075889a31.505409 31.505409 0 0 1 0 63.010819h-113.10442C143.979878 913.731067 0.000158 766.128224 0.000158 577.568349a339.943367 339.943367 0 0 1 321.985283-339.78584 408.467633 408.467633 0 0 1 751.561541 22.053787A339.470786 339.470786 0 0 1 1291.721942 577.568349 330.806798 330.806798 0 0 1 958.394711 913.731067z" fill="" p-id="2299"></path><path d="M743.527819 917.984297L708.871869 897.978362l34.65595-20.005934a31.505409 31.505409 0 0 0-31.50541-54.504359L677.366459 843.474004V803.462134a31.505409 31.505409 0 0 0-63.010819 0v40.01187l-34.65595-20.005935a31.505409 31.505409 0 1 0-31.505409 54.504359L582.850231 897.978362l-34.65595 20.005935a31.505409 31.505409 0 1 0 31.505409 54.504359l34.65595-20.005935V992.494591a31.505409 31.505409 0 0 0 63.010819 0v-40.01187l34.65595 20.005935a31.505409 31.505409 0 0 0 31.50541-54.504359z" fill="" p-id="2300"></path></svg>