<?xml version="1.0" standalone="no"?><!DOCTYPE svg PUBLIC "-//W3C//DTD SVG 1.1//EN" "http://www.w3.org/Graphics/SVG/1.1/DTD/svg11.dtd"><svg t="1535869523704" class="icon" style="" viewBox="0 0 1222 1024" version="1.1" xmlns="http://www.w3.org/2000/svg" p-id="2415" xmlns:xlink="http://www.w3.org/1999/xlink" width="238.671875" height="200"><defs><style type="text/css"></style></defs><path d="M624.831081 698.476523m28.797212 7.71619l0 0q28.797211 7.71619 21.081021 36.513401l-69.445706 259.174904q-7.71619 28.797211-36.513401 21.081021l0 0q-28.797211-7.71619-21.081022-36.513401l69.445706-259.174903q7.71619-28.797211 36.513402-21.081022Z" fill="" p-id="2416"></path><path d="M906.913651 864.649156H760.233361a29.813067 29.813067 0 0 1 0-59.626134h146.68029A254.454528 254.454528 0 0 0 1162.709767 546.54373 261.460599 261.460599 0 0 0 983.831364 298.200881l-14.906534-5.217287-4.919156-13.714011a326.900281 326.900281 0 0 0-612.658529-13.41588l-7.006071 18.931298h-24.148584A261.758729 261.758729 0 0 0 59.626283 546.54373C59.626283 693.820282 167.400521 805.023022 310.354178 805.023022H477.009223a29.813067 29.813067 0 0 1 0 59.626134H310.354178C136.245866 864.649156 0.000149 724.974937 0.000149 546.54373a321.682994 321.682994 0 0 1 304.689546-321.533929 386.526415 386.526415 0 0 1 711.190716 20.869147A321.235798 321.235798 0 0 1 1222.335901 546.54373 313.037205 313.037205 0 0 1 906.913651 864.649156z" fill="" p-id="2417"></path></svg>