<?xml version="1.0" standalone="no"?><!DOCTYPE svg PUBLIC "-//W3C//DTD SVG 1.1//EN" "http://www.w3.org/Graphics/SVG/1.1/DTD/svg11.dtd"><svg t="1535869436676" class="icon" style="" viewBox="0 0 1111 1024" version="1.1" xmlns="http://www.w3.org/2000/svg" p-id="1334" xmlns:xlink="http://www.w3.org/1999/xlink" width="216.9921875" height="200"><defs><style type="text/css"></style></defs><path d="M1053.257143 702.171429m-29.257143 0a29.257143 29.257143 0 1 0 58.514286 0 29.257143 29.257143 0 1 0-58.514286 0Z" fill="" p-id="1335"></path><path d="M848.457143 117.028571m-14.628572 0a14.628571 14.628571 0 1 0 29.257143 0 14.628571 14.628571 0 1 0-29.257143 0Z" fill="" p-id="1336"></path><path d="M746.057143 424.228571m-14.628572 0a14.628571 14.628571 0 1 0 29.257143 0 14.628571 14.628571 0 1 0-29.257143 0Z" fill="" p-id="1337"></path><path d="M29.257143 570.514286m-14.628572 0a14.628571 14.628571 0 1 0 29.257143 0 14.628571 14.628571 0 1 0-29.257143 0Z" fill="" p-id="1338"></path><path d="M438.857143 380.342857m-43.885714 0a43.885714 43.885714 0 1 0 87.771428 0 43.885714 43.885714 0 1 0-87.771428 0Z" fill="" p-id="1339"></path><path d="M1053.257143 58.514286m-43.885714 0a43.885714 43.885714 0 1 0 87.771428 0 43.885714 43.885714 0 1 0-87.771428 0Z" fill="" p-id="1340"></path><path d="M365.714286 43.885714m-43.885715 0a43.885714 43.885714 0 1 0 87.771429 0 43.885714 43.885714 0 1 0-87.771429 0Z" fill="" p-id="1341"></path><path d="M73.142857 219.428571m-29.257143 0a29.257143 29.257143 0 1 0 58.514286 0 29.257143 29.257143 0 1 0-58.514286 0Z" fill="" p-id="1342"></path><path d="M643.657143 146.285714m-29.257143 0a29.257143 29.257143 0 1 0 58.514286 0 29.257143 29.257143 0 1 0-58.514286 0Z" fill="" p-id="1343"></path><path d="M146.285714 848.457143m-43.885714 0a43.885714 43.885714 0 1 0 87.771429 0 43.885714 43.885714 0 1 0-87.771429 0Z" fill="" p-id="1344"></path><path d="M555.885714 555.885714C288.182857 555.885714 0 505.563429 0 394.971429s288.182857-160.914286 555.885714-160.914286 555.885714 50.322286 555.885715 160.914286-288.182857 160.914286-555.885715 160.914285z m0-263.314285c-328.118857 0-497.371429 71.826286-497.371428 102.4s169.252571 102.4 497.371428 102.4 497.371429-71.826286 497.371429-102.4-169.252571-102.4-497.371429-102.4zM555.885714 775.314286c-194.706286 0-362.349714-42.861714-417.060571-106.788572a29.257143 29.257143 0 1 1 43.885714-38.180571C219.428571 672.914286 359.862857 716.8 555.885714 716.8s336.457143-43.885714 373.028572-86.747429a29.257143 29.257143 0 1 1 43.885714 37.888C919.259429 732.16 751.469714 775.314286 555.885714 775.314286zM555.885714 1024c-112.932571 0-226.304-33.645714-282.331428-83.675429a29.257143 29.257143 0 1 1 39.058285-43.885714C357.814857 937.252571 457.874286 965.485714 555.885714 965.485714s198.802286-28.379429 243.712-69.193143a29.257143 29.257143 0 1 1 39.350857 43.885715C783.213714 990.061714 669.403429 1024 555.885714 1024z" fill="" p-id="1345"></path><path d="M672.914286 643.657143m-14.628572 0a14.628571 14.628571 0 1 0 29.257143 0 14.628571 14.628571 0 1 0-29.257143 0Z" fill="" p-id="1346"></path><path d="M892.342857 994.742857m-14.628571 0a14.628571 14.628571 0 1 0 29.257143 0 14.628571 14.628571 0 1 0-29.257143 0Z" fill="" p-id="1347"></path></svg>