<?xml version="1.0" standalone="no"?><!DOCTYPE svg PUBLIC "-//W3C//DTD SVG 1.1//EN" "http://www.w3.org/Graphics/SVG/1.1/DTD/svg11.dtd"><svg t="1535869531695" class="icon" style="" viewBox="0 0 1150 1024" version="1.1" xmlns="http://www.w3.org/2000/svg" p-id="2532" xmlns:xlink="http://www.w3.org/1999/xlink" width="224.609375" height="200"><defs><style type="text/css"></style></defs><path d="M298.890835 572.077058m-29.889084 0a29.889083 29.889083 0 1 0 59.778167 0 29.889083 29.889083 0 1 0-59.778167 0Z" fill="" p-id="2533"></path><path d="M418.447169 403.502627m-14.944542 0a14.944542 14.944542 0 1 0 29.889083 0 14.944542 14.944542 0 1 0-29.889083 0Z" fill="" p-id="2534"></path><path d="M119.556334 478.225336m-44.833625 0a44.833625 44.833625 0 1 0 89.66725 0 44.833625 44.833625 0 1 0-89.66725 0Z" fill="" p-id="2535"></path><path d="M508.114419 89.66725m-29.889083 0a29.889083 29.889083 0 1 0 59.778167 0 29.889083 29.889083 0 1 0-59.778167 0Z" fill="" p-id="2536"></path><path d="M44.833625 44.833625m-44.833625 0a44.833625 44.833625 0 1 0 89.66725 0 44.833625 44.833625 0 1 0-89.66725 0Z" fill="" p-id="2537"></path><path d="M224.168126 224.168126m-29.889083 0a29.889083 29.889083 0 1 0 59.778167 0 29.889083 29.889083 0 1 0-59.778167 0Z" fill="" p-id="2538"></path><path d="M672.504378 254.05721m-44.833625 0a44.833625 44.833625 0 1 0 89.667251 0 44.833625 44.833625 0 1 0-89.667251 0Z" fill="" p-id="2539"></path><path d="M97.886748 800.728546c-33.92411 0-54.099241-2.241681-56.340922-2.391126a29.889083 29.889083 0 1 1 6.575598-59.778167c7.472271 0.747227 643.960304 62.019848 1046.117922-640.523059a29.889083 29.889083 0 0 1 52.007005 29.889083c-220.880327 385.120841-508.114419 546.970228-711.360186 614.818447a1081.088149 1081.088149 0 0 1-336.999417 57.984822zM78.159953 1024c-21.968476 0-34.521891 0-35.418564-0.896673a29.889083 29.889083 0 0 1 4.184472-59.778166c6.276708 0 632.901343 37.062464 1050.900175-466.568594a29.889083 29.889083 0 0 1 46.029189 38.258027C764.41331 992.168126 221.029772 1024 78.159953 1024z" fill="" p-id="2540"></path></svg>