<?xml version="1.0" standalone="no"?><!DOCTYPE svg PUBLIC "-//W3C//DTD SVG 1.1//EN" "http://www.w3.org/Graphics/SVG/1.1/DTD/svg11.dtd"><svg t="1535869442985" class="icon" style="" viewBox="0 0 1024 1024" version="1.1" xmlns="http://www.w3.org/2000/svg" p-id="1462" xmlns:xlink="http://www.w3.org/1999/xlink" width="200" height="200"><defs><style type="text/css"></style></defs><path d="M512 833.488372a321.488372 321.488372 0 1 1 321.488372-321.488372 321.488372 321.488372 0 0 1-321.488372 321.488372z m0-595.348837a273.860465 273.860465 0 1 0 273.860465 273.860465 273.860465 273.860465 0 0 0-273.860465-273.860465zM512 904.930233a23.813953 23.813953 0 0 0-23.813953 23.813953v71.441861a23.813953 23.813953 0 0 0 47.627906 0v-71.441861a23.813953 23.813953 0 0 0-23.813953-23.813953zM512 0a23.813953 23.813953 0 0 0-23.813953 23.813953v71.441861a23.813953 23.813953 0 0 0 47.627906 0V23.813953a23.813953 23.813953 0 0 0-23.813953-23.813953zM823.486512 789.789767a23.813953 23.813953 0 0 0-33.696745 33.696745l50.604652 50.604651a23.813953 23.813953 0 1 0 33.696744-33.696744zM183.605581 149.908837a23.813953 23.813953 0 1 0-33.696744 33.696744l50.604651 50.604652a23.813953 23.813953 0 1 0 33.696745-33.696745zM1000.186047 488.186047h-71.441861a23.813953 23.813953 0 0 0 0 47.627906h71.441861a23.813953 23.813953 0 0 0 0-47.627906zM95.255814 488.186047H23.813953a23.813953 23.813953 0 0 0 0 47.627906h71.441861a23.813953 23.813953 0 0 0 0-47.627906zM840.394419 149.908837l-50.604652 50.604651a23.813953 23.813953 0 0 0 33.696745 33.696745l50.604651-50.604652a23.813953 23.813953 0 1 0-33.696744-33.696744zM200.513488 789.789767l-50.604651 50.604652a23.813953 23.813953 0 1 0 33.696744 33.696744l50.604652-50.604651a23.813953 23.813953 0 0 0-33.696745-33.696745z" fill="" p-id="1463"></path></svg>