<?xml version="1.0" standalone="no"?><!DOCTYPE svg PUBLIC "-//W3C//DTD SVG 1.1//EN" "http://www.w3.org/Graphics/SVG/1.1/DTD/svg11.dtd"><svg t="1535869586368" class="icon" style="" viewBox="0 0 1222 1024" version="1.1" xmlns="http://www.w3.org/2000/svg" p-id="3358" xmlns:xlink="http://www.w3.org/1999/xlink" width="238.671875" height="200"><defs><style type="text/css"></style></defs><path d="M459.866709 706.192705a29.813067 29.813067 0 0 0-36.521007 21.167277l-69.464446 259.075553a29.813067 29.813067 0 0 0 21.018212 36.521008 29.813067 29.813067 0 0 0 36.521007-21.018213l69.464447-259.224618a29.813067 29.813067 0 0 0-21.018213-36.521007zM584.038134 706.192705a29.813067 29.813067 0 0 0-36.521007 21.167277l-69.464447 259.075553a29.813067 29.813067 0 0 0 57.688285 14.906534l69.315381-259.224619a29.813067 29.813067 0 0 0-21.018212-35.924745zM708.209559 706.192705a29.813067 29.813067 0 0 0-36.521008 21.167277l-69.315381 259.075553a29.813067 29.813067 0 0 0 57.53922 14.906534l69.464446-259.224619a29.813067 29.813067 0 0 0-21.167277-35.924745zM832.530048 706.192705a29.813067 29.813067 0 0 0-36.521007 21.167277l-69.464446 259.075553a29.813067 29.813067 0 0 0 21.018212 36.521008 29.813067 29.813067 0 0 0 36.521007-21.018213l69.464447-259.224618a29.813067 29.813067 0 0 0-21.018213-36.521007z" fill="" p-id="3359"></path><path d="M906.913651 864.649156a29.813067 29.813067 0 0 1 0-59.626134A254.454528 254.454528 0 0 0 1162.709767 546.54373 261.460599 261.460599 0 0 0 983.831364 298.200881l-14.906534-5.217287-4.919156-13.714011a326.900281 326.900281 0 0 0-612.658529-13.41588l-7.006071 18.931298h-24.148584A261.758729 261.758729 0 0 0 59.626283 546.54373C59.626283 693.820282 167.400521 805.023022 310.354178 805.023022a29.813067 29.813067 0 0 1 0 59.626134C136.245866 864.649156 0.000149 724.974937 0.000149 546.54373a321.682994 321.682994 0 0 1 304.689546-321.533929 386.526415 386.526415 0 0 1 711.190716 20.869147A321.235798 321.235798 0 0 1 1222.335901 546.54373 313.037205 313.037205 0 0 1 906.913651 864.649156z" fill="" p-id="3360"></path></svg>