<?xml version="1.0" standalone="no"?><!DOCTYPE svg PUBLIC "-//W3C//DTD SVG 1.1//EN" "http://www.w3.org/Graphics/SVG/1.1/DTD/svg11.dtd"><svg t="1535869606184" class="icon" style="" viewBox="0 0 1166 1024" version="1.1" xmlns="http://www.w3.org/2000/svg" p-id="3592" xmlns:xlink="http://www.w3.org/1999/xlink" width="227.734375" height="200"><defs><style type="text/css"></style></defs><path d="M284.42598 824.901913h-1.137703c-5.261878 0-10.381543 0-15.501208-0.99549C112.632774 809.542918 0.000142 682.688994 0.000142 521.419544a306.895479 306.895479 0 0 1 290.683207-306.753267 368.758099 368.758099 0 0 1 678.497837 19.909809A306.468841 306.468841 0 0 1 1166.146079 521.419544C1166.146079 686.244317 1044.41182 816.511351 883.14237 824.901913H881.720241a28.442584 28.442584 0 0 1-1.422129-56.885167A240.908685 240.908685 0 0 0 1109.260911 521.419544 249.44146 249.44146 0 0 0 938.605408 284.492821l-14.221291-4.977453-4.693027-13.083588a311.872932 311.872932 0 0 0-584.495097-12.799163l-6.684008 18.061041h-23.038492A249.725886 249.725886 0 0 0 56.88531 521.419544c0 130.835886 90.874055 234.082465 215.879211 245.601711l12.65695 0.853278A28.442584 28.442584 0 0 1 284.42598 824.901913z" fill="" p-id="3593"></path><path d="M576.815742 647.135764a28.442584 28.442584 0 0 0-38.824127-10.381543l-18.914318 10.950395V625.803826a28.442584 28.442584 0 0 0-56.885168 0v21.90079l-18.914318-10.950395a28.442584 28.442584 0 1 0-28.442584 49.20567l18.914319 10.950395-18.914319 10.950395a28.442584 28.442584 0 0 0 28.442584 49.20567l18.914318-10.950395V768.016746a28.442584 28.442584 0 0 0 56.885168 0v-21.90079l18.914318 10.950395a28.442584 28.442584 0 0 0 28.442584-49.20567L547.519881 696.910286l18.914318-10.950395a28.442584 28.442584 0 0 0 10.381543-38.824127zM519.930575 874.676435a28.442584 28.442584 0 0 0-38.824127-10.381543l-18.914319 10.950395V853.344497a28.442584 28.442584 0 0 0-56.885167 0v21.90079l-18.914319-10.950395a28.442584 28.442584 0 1 0-28.442583 49.20567l18.914318 10.950395-18.914318 10.950394a28.442584 28.442584 0 1 0 28.442583 49.20567l18.914319-10.950394V995.557416a28.442584 28.442584 0 0 0 56.885167 0v-21.900789l18.914319 10.950394a28.442584 28.442584 0 0 0 28.442583-49.20567L490.634713 924.450957l18.914318-10.950395a28.442584 28.442584 0 0 0 10.381544-38.824127zM808.196162 707.860681L789.281843 696.910286l18.914319-10.950395a28.442584 28.442584 0 0 0-28.442584-49.20567l-18.914318 10.950395V625.803826a28.442584 28.442584 0 0 0-56.885168 0v21.90079l-18.914318-10.950395a28.442584 28.442584 0 1 0-28.442584 49.20567l18.914318 10.950395-18.914318 10.950395a28.442584 28.442584 0 1 0 28.442584 49.20567l18.914318-10.950395V768.016746a28.442584 28.442584 0 0 0 56.885168 0v-21.90079l18.914318 10.950395a28.442584 28.442584 0 0 0 28.442584-49.20567zM761.692537 874.676435a28.442584 28.442584 0 0 0-38.824127-10.381543l-18.914318 10.950395V853.344497a28.442584 28.442584 0 0 0-56.885168 0v21.90079l-18.914318-10.950395a28.442584 28.442584 0 1 0-28.442584 49.20567l18.914318 10.950395-18.914318 10.950394a28.442584 28.442584 0 0 0 28.442584 49.20567l18.914318-10.950394V995.557416a28.442584 28.442584 0 0 0 56.885168 0v-21.900789l18.914318 10.950394a28.442584 28.442584 0 0 0 28.442584-49.20567L732.396676 924.450957l18.914318-10.950395a28.442584 28.442584 0 0 0 10.381543-38.824127z" fill="" p-id="3594"></path></svg>