<?xml version="1.0" standalone="no"?><!DOCTYPE svg PUBLIC "-//W3C//DTD SVG 1.1//EN" "http://www.w3.org/Graphics/SVG/1.1/DTD/svg11.dtd"><svg t="1535869466416" class="icon" style="" viewBox="0 0 1144 1024" version="1.1" xmlns="http://www.w3.org/2000/svg" p-id="1699" xmlns:xlink="http://www.w3.org/1999/xlink" width="223.4375" height="200"><defs><style type="text/css"></style></defs><path d="M1114.352941 105.411765m-30.117647 0a30.117647 30.117647 0 1 0 60.235294 0 30.117647 30.117647 0 1 0-60.235294 0Z" fill="" p-id="1700"></path><path d="M632.470588 120.470588m-15.058823 0a15.058824 15.058824 0 1 0 30.117647 0 15.058824 15.058824 0 1 0-30.117647 0Z" fill="" p-id="1701"></path><path d="M768 376.470588m-45.176471 0a45.176471 45.176471 0 1 0 90.352942 0 45.176471 45.176471 0 1 0-90.352942 0Z" fill="" p-id="1702"></path><path d="M75.294118 150.588235m-45.176471 0a45.176471 45.176471 0 1 0 90.352941 0 45.176471 45.176471 0 1 0-90.352941 0Z" fill="" p-id="1703"></path><path d="M391.529412 30.117647m-30.117647 0a30.117647 30.117647 0 1 0 60.235294 0 30.117647 30.117647 0 1 0-60.235294 0Z" fill="" p-id="1704"></path><path d="M572.235294 542.117647C296.658824 542.117647 0 490.315294 0 376.470588s296.658824-165.647059 572.235294-165.647059 572.235294 51.802353 572.235294 165.647059-296.658824 165.647059-572.235294 165.647059z m0-271.058823c-337.769412 0-512 73.938824-512 105.411764s174.230588 105.411765 512 105.411765 512-73.938824 512-105.411765-174.230588-105.411765-512-105.411764zM572.235294 768c-200.432941 0-373.007059-44.122353-429.327059-109.929412a30.117647 30.117647 0 1 1 45.176471-39.303529C225.882353 662.588235 370.447059 707.764706 572.235294 707.764706s346.352941-45.176471 384-89.298824a30.117647 30.117647 0 1 1 45.176471 39.002353C946.296471 723.576471 773.571765 768 572.235294 768zM572.235294 1024c-116.254118 0-232.96-34.635294-290.635294-86.136471a30.117647 30.117647 0 1 1 40.207059-45.17647C368.338824 934.701176 471.341176 963.764706 572.235294 963.764706s204.649412-29.214118 250.88-71.228235a30.117647 30.117647 0 0 1 40.508235 45.17647C806.249412 989.063529 689.091765 1024 572.235294 1024z" fill="" p-id="1705"></path></svg>