<?xml version="1.0" standalone="no"?><!DOCTYPE svg PUBLIC "-//W3C//DTD SVG 1.1//EN" "http://www.w3.org/Graphics/SVG/1.1/DTD/svg11.dtd"><svg t="1535869410687" class="icon" style="" viewBox="0 0 1415 1024" version="1.1" xmlns="http://www.w3.org/2000/svg" p-id="970" xmlns:xlink="http://www.w3.org/1999/xlink" width="276.3671875" height="200"><defs><style type="text/css"></style></defs><path d="M1378.322124 951.504425H36.247788a36.247788 36.247788 0 0 0 0 72.495575h1342.980531a36.247788 36.247788 0 0 0 0-72.495575z" fill="" p-id="971"></path><path d="M280.920354 761.20354m-54.371681 0a54.371681 54.371681 0 1 0 108.743362 0 54.371681 54.371681 0 1 0-108.743362 0Z" fill="" p-id="972"></path><path d="M706.831858 761.20354m-54.371681 0a54.371681 54.371681 0 1 0 108.743363 0 54.371681 54.371681 0 1 0-108.743363 0Z" fill="" p-id="973"></path><path d="M1132.743363 761.20354m-54.371682 0a54.371681 54.371681 0 1 0 108.743363 0 54.371681 54.371681 0 1 0-108.743363 0Z" fill="" p-id="974"></path><path d="M489.345133 525.59292m-54.371682 0a54.371681 54.371681 0 1 0 108.743363 0 54.371681 54.371681 0 1 0-108.743363 0Z" fill="" p-id="975"></path><path d="M54.371681 525.59292m-54.371681 0a54.371681 54.371681 0 1 0 108.743363 0 54.371681 54.371681 0 1 0-108.743363 0Z" fill="" p-id="976"></path><path d="M924.318584 525.59292m-54.371681 0a54.371681 54.371681 0 1 0 108.743362 0 54.371681 54.371681 0 1 0-108.743362 0Z" fill="" p-id="977"></path><path d="M1359.292035 525.59292m-54.371681 0a54.371681 54.371681 0 1 0 108.743363 0 54.371681 54.371681 0 1 0-108.743363 0Z" fill="" p-id="978"></path><path d="M489.345133 54.371681m-54.371682 0a54.371681 54.371681 0 1 0 108.743363 0 54.371681 54.371681 0 1 0-108.743363 0Z" fill="" p-id="979"></path><path d="M54.371681 54.371681m-54.371681 0a54.371681 54.371681 0 1 0 108.743363 0 54.371681 54.371681 0 1 0-108.743363 0Z" fill="" p-id="980"></path><path d="M924.318584 54.371681m-54.371681 0a54.371681 54.371681 0 1 0 108.743362 0 54.371681 54.371681 0 1 0-108.743362 0Z" fill="" p-id="981"></path><path d="M1359.292035 54.371681m-54.371681 0a54.371681 54.371681 0 1 0 108.743363 0 54.371681 54.371681 0 1 0-108.743363 0Z" fill="" p-id="982"></path><path d="M280.920354 289.982301m-54.371681 0a54.371681 54.371681 0 1 0 108.743362 0 54.371681 54.371681 0 1 0-108.743362 0Z" fill="" p-id="983"></path><path d="M706.831858 289.982301m-54.371681 0a54.371681 54.371681 0 1 0 108.743363 0 54.371681 54.371681 0 1 0-108.743363 0Z" fill="" p-id="984"></path><path d="M1132.743363 289.982301m-54.371682 0a54.371681 54.371681 0 1 0 108.743363 0 54.371681 54.371681 0 1 0-108.743363 0Z" fill="" p-id="985"></path></svg>