<?xml version="1.0" standalone="no"?><!DOCTYPE svg PUBLIC "-//W3C//DTD SVG 1.1//EN" "http://www.w3.org/Graphics/SVG/1.1/DTD/svg11.dtd"><svg t="1535869489811" class="icon" style="" viewBox="0 0 1222 1024" version="1.1" xmlns="http://www.w3.org/2000/svg" p-id="1945" xmlns:xlink="http://www.w3.org/1999/xlink" width="238.671875" height="200"><defs><style type="text/css"></style></defs><path d="M349.773367 704.823682a29.755272 29.755272 0 0 0-36.450208 21.126243l-69.181006 258.57331a29.755272 29.755272 0 0 0 20.977466 36.450208 29.755272 29.755272 0 0 0 36.450208-20.977467l69.329783-258.722087a29.755272 29.755272 0 0 0-21.126243-36.450207zM465.818926 704.823682a29.755272 29.755272 0 0 0-36.450208 21.126243l-69.181006 258.57331a29.755272 29.755272 0 0 0 57.427674 14.877636l69.329783-258.722087a29.755272 29.755272 0 0 0-21.126243-35.855102zM581.864485 704.823682a29.755272 29.755272 0 0 0-36.450207 21.126243L476.084495 984.523235a29.755272 29.755272 0 0 0 57.427674 14.877636l69.329783-258.722087a29.755272 29.755272 0 0 0-20.977467-35.855102zM697.910045 704.823682a29.755272 29.755272 0 0 0-36.450208 21.126243l-69.181007 258.57331a29.755272 29.755272 0 1 0 57.427675 14.877636l69.329782-258.722087a29.755272 29.755272 0 0 0-21.126242-35.855102zM813.955604 704.823682a29.755272 29.755272 0 0 0-36.450208 21.126243l-69.181006 258.57331a29.755272 29.755272 0 0 0 57.427674 14.877636l69.329783-258.722087a29.755272 29.755272 0 0 0-21.126243-35.855102zM930.001163 704.823682a29.755272 29.755272 0 0 0-36.450208 21.126243l-69.181006 258.57331a29.755272 29.755272 0 0 0 20.977466 36.450208 29.755272 29.755272 0 0 0 36.450208-20.977467l69.329783-258.722087a29.755272 29.755272 0 0 0-21.126243-36.450207z" fill="" p-id="1946"></path><path d="M999.330946 848.095315a29.755272 29.755272 0 0 1-9.670463-57.874004A256.639218 256.639218 0 0 0 1160.455742 545.484202 260.953732 260.953732 0 0 0 981.924112 297.62279l-14.877636-5.207173-4.909619-13.687425a326.266553 326.266553 0 0 0-611.470832-13.389872l-6.992489 18.894598h-24.10177A261.251285 261.251285 0 0 0 59.510692 545.484202C59.510692 662.124867 128.989251 758.8295 236.554558 789.774982a29.755272 29.755272 0 1 1-16.811728 57.130122C86.290437 807.479369 0.000149 689.053388 0.000149 545.484202a321.059381 321.059381 0 0 1 304.098876-320.910604 385.777096 385.777096 0 0 1 709.812004 20.82869A320.613052 320.613052 0 0 1 1219.966285 545.484202a316.000984 316.000984 0 0 1-210.964876 300.974573 28.118732 28.118732 0 0 1-9.670463 1.63654z" fill="" p-id="1947"></path></svg>