<?xml version="1.0" standalone="no"?><!DOCTYPE svg PUBLIC "-//W3C//DTD SVG 1.1//EN" "http://www.w3.org/Graphics/SVG/1.1/DTD/svg11.dtd"><svg t="1535869578362" class="icon" style="" viewBox="0 0 1171 1024" version="1.1" xmlns="http://www.w3.org/2000/svg" p-id="3240" xmlns:xlink="http://www.w3.org/1999/xlink" width="228.7109375" height="200"><defs><style type="text/css"></style></defs><path d="M714.617185 739.87743m25.139358 6.736071l0 0q25.139358 6.736071 18.403288 31.875429l-60.624637 226.254223q-6.736071 25.139358-31.875428 18.403288l0 0q-25.139358-6.736071-18.403288-31.875429l60.624637-226.254223q6.736071-25.139358 31.875428-18.403288Z" fill="" p-id="3241"></path><path d="M258.439954 626.450121a260.261787 260.261787 0 1 1 429.431948-270.672259l-49.059346 17.307409A208.209429 208.209429 0 0 0 234.235608 442.445037a206.387597 206.387597 0 0 0 61.031389 147.178041zM442.445037 0a26.026179 26.026179 0 0 0-26.026178 26.026179v78.078536a26.026179 26.026179 0 0 0 52.052357 0V26.026179a26.026179 26.026179 0 0 0-26.026179-26.026179zM166.437413 130.130893A26.026179 26.026179 0 0 0 130.130893 166.437413L184.785869 221.222519a26.026179 26.026179 0 0 0 36.43665-36.43665zM130.130893 442.445037a26.026179 26.026179 0 0 0-26.026178-26.026178H26.026179a26.026179 26.026179 0 0 0 0 52.052357h78.078536a26.026179 26.026179 0 0 0 26.026178-26.026179zM184.785869 663.667556L130.130893 718.452662A26.026179 26.026179 0 0 0 166.437413 754.759182L221.222519 700.104206a26.026179 26.026179 0 1 0-36.43665-36.43665zM700.104206 221.222519l54.654976-54.785106A26.026179 26.026179 0 0 0 718.452662 130.130893L663.667556 184.785869a26.026179 26.026179 0 0 0 36.43665 36.43665z" fill="" p-id="3242"></path><path d="M978.454187 884.890075H804.208921a26.026179 26.026179 0 0 1 0-52.052357h174.245266C1060.046257 832.837718 1119.125683 776.230779 1119.125683 698.412505a143.143983 143.143983 0 0 0-146.006862-141.061889 146.787648 146.787648 0 0 0-17.43754 1.171178l-22.122252 2.472487-5.986021-21.471597a208.990215 208.990215 0 0 0-403.405769 10.280341l-6.636676 30.320498-28.628797-11.711781a150.431313 150.431313 0 0 0-56.737069-11.061126A143.143983 143.143983 0 0 0 286.287965 698.412505C286.287965 775.059601 347.579616 832.837718 429.431948 832.837718h174.375397a26.026179 26.026179 0 0 1 0 52.052357H429.431948c-110.871521 0-195.19634-80.16063-195.19634-186.47757a195.846995 195.846995 0 0 1 198.05922-193.114246 201.833016 201.833016 0 0 1 48.668954 5.986021 261.823357 261.823357 0 0 1 490.333206-5.986021A195.19634 195.19634 0 0 1 1171.17804 698.412505C1171.17804 804.729445 1088.284661 884.890075 978.454187 884.890075z" fill="" p-id="3243"></path></svg>