<?xml version="1.0" standalone="no"?><!DOCTYPE svg PUBLIC "-//W3C//DTD SVG 1.1//EN" "http://www.w3.org/Graphics/SVG/1.1/DTD/svg11.dtd"><svg t="1535869572267" class="icon" style="" viewBox="0 0 1246 1024" version="1.1" xmlns="http://www.w3.org/2000/svg" p-id="3123" xmlns:xlink="http://www.w3.org/1999/xlink" width="243.359375" height="200"><defs><style type="text/css"></style></defs><path d="M833.868108 930.317838L803.424865 913.297297l30.443243-17.574054a27.675676 27.675676 0 0 0-27.675676-48.017297l-30.443243 17.574054V830.27027a27.675676 27.675676 0 0 0-55.351351 0v34.594595l-30.304865-17.574054a27.675676 27.675676 0 1 0-27.675676 48.017297l30.304865 17.989189-30.304865 17.435676a27.675676 27.675676 0 1 0 27.675676 48.017297l30.304865-17.574054V996.324324a27.675676 27.675676 0 0 0 55.351351 0v-35.563243l30.443243 17.574054a27.675676 27.675676 0 0 0 27.675676-48.017297zM275.372973 666.845405A276.756757 276.756757 0 0 1 469.656216 193.72973H470.486486a276.756757 276.756757 0 0 1 260.704865 183.766486l-52.168648 18.542703A221.405405 221.405405 0 0 0 470.486486 249.081081a221.405405 221.405405 0 0 0-156.09081 378.464865zM468.964324 0a27.675676 27.675676 0 0 0-27.675675 27.675676v83.027027a27.675676 27.675676 0 0 0 55.351351 0V27.675676a27.675676 27.675676 0 0 0-27.675676-27.675676zM175.878919 138.378378a27.675676 27.675676 0 0 0-39.022703 39.29946l58.949189 58.534054A27.675676 27.675676 0 1 0 235.243243 197.189189zM138.378378 471.593514a27.675676 27.675676 0 0 0-27.675675-27.675676H27.675676a27.675676 27.675676 0 0 0 0 55.351351h83.027027a27.675676 27.675676 0 0 0 27.675675-27.675675zM197.189189 705.72973L138.378378 765.094054a27.675676 27.675676 0 0 0 39.29946 39.022703l58.534054-58.949189A27.675676 27.675676 0 0 0 197.189189 705.72973zM743.783784 235.243243L802.594595 175.878919a27.675676 27.675676 0 1 0-39.161081-39.022703l-58.534055 58.949189A27.675676 27.675676 0 1 0 743.783784 235.243243z" fill="" p-id="3124"></path><path d="M456.648649 940.972973a211.442162 211.442162 0 0 1-145.850811-55.351351 193.72973 193.72973 0 0 1-60.886487-141.976217 207.567568 207.567568 0 0 1 210.058379-206.183783 210.473514 210.473514 0 0 1 51.061621 6.088648 276.756757 276.756757 0 0 1 261.950271-184.735135h0.968648a275.788108 275.788108 0 0 1 259.044325 176.847568h2.767567A211.995676 211.995676 0 0 1 1183.827027 595.027027a200.787027 200.787027 0 0 1 62.408649 145.158919c0 113.055135-87.455135 198.572973-204.246487 198.988108h-129.937297a27.675676 27.675676 0 0 1 0-55.351351h130.075676c86.624865 0 149.31027-60.60973 149.033513-143.36a146.819459 146.819459 0 0 0-45.526486-105.721081 157.059459 157.059459 0 0 0-109.734054-43.727568 136.441081 136.441081 0 0 0-18.957838 1.107027l-23.662703 2.767568-6.227027-22.832433a219.606486 219.606486 0 0 0-213.102703-157.88973 219.883243 219.883243 0 0 0-215.455135 170.205406l-6.918919 32.242162-30.443243-12.315676a160.657297 160.657297 0 0 0-59.779459-11.485405 152.216216 152.216216 0 0 0-156.090811 150.417297 138.378378 138.378378 0 0 0 43.450811 101.846487A156.367568 156.367568 0 0 0 456.648649 885.621622h130.629189a27.675676 27.675676 0 1 1 0 55.351351H456.648649z" fill="" p-id="3125"></path></svg>