<?xml version="1.0" standalone="no"?><!DOCTYPE svg PUBLIC "-//W3C//DTD SVG 1.1//EN" "http://www.w3.org/Graphics/SVG/1.1/DTD/svg11.dtd"><svg t="1535869559786" class="icon" style="" viewBox="0 0 1222 1024" version="1.1" xmlns="http://www.w3.org/2000/svg" p-id="2888" xmlns:xlink="http://www.w3.org/1999/xlink" width="238.671875" height="200"><defs><style type="text/css"></style></defs><path d="M778.121201 883.580454L745.326827 864.649156l32.794374-18.931297a29.813067 29.813067 0 0 0-29.813067-51.576606L715.51376 812.923485V775.209955a29.813067 29.813067 0 0 0-59.626134 0v37.71353l-32.794374-18.782232a29.813067 29.813067 0 0 0-40.694837 10.881769 29.813067 29.813067 0 0 0 10.88177 40.694837L626.074559 864.649156l-32.794374 18.931298a29.813067 29.813067 0 0 0-10.88177 40.694836 29.813067 29.813067 0 0 0 40.694837 10.88177l32.794374-18.931298V954.088358a29.813067 29.813067 0 0 0 59.626134 0v-37.862596l32.794374 18.931298a29.813067 29.813067 0 0 0 29.813067-51.576606z" fill="" p-id="2889"></path><path d="M479.584891 698.991098m28.797211 7.71619l0 0q28.797211 7.71619 21.081022 36.513401l-69.445706 259.174903q-7.71619 28.797211-36.513401 21.081022l0 0q-28.797211-7.71619-21.081022-36.513401l69.445706-259.174903q7.71619-28.797211 36.513401-21.081022Z" fill="" p-id="2890"></path><path d="M882.01974 864.649156a29.813067 29.813067 0 0 1 0-59.626134h24.893911A254.454528 254.454528 0 0 0 1162.709767 546.54373 261.460599 261.460599 0 0 0 983.831364 298.200881l-14.906534-5.217287-4.919156-13.714011a326.900281 326.900281 0 0 0-612.658529-13.41588l-7.006071 18.931298h-23.999519A261.758729 261.758729 0 0 0 59.626283 546.54373C59.626283 693.820282 167.400521 805.023022 310.354178 805.023022h49.936887a29.813067 29.813067 0 0 1 0 59.626134h-49.936887C136.245866 864.649156 0.000149 724.974937 0.000149 546.54373a321.682994 321.682994 0 0 1 304.689546-321.533929 386.526415 386.526415 0 0 1 711.190716 20.869147A321.235798 321.235798 0 0 1 1222.335901 546.54373 313.037205 313.037205 0 0 1 906.913651 864.649156h-5.664483" fill="" p-id="2891"></path></svg>