<?xml version="1.0" standalone="no"?><!DOCTYPE svg PUBLIC "-//W3C//DTD SVG 1.1//EN" "http://www.w3.org/Graphics/SVG/1.1/DTD/svg11.dtd"><svg t="1535869496918" class="icon" style="" viewBox="0 0 1222 1024" version="1.1" xmlns="http://www.w3.org/2000/svg" p-id="2062" xmlns:xlink="http://www.w3.org/1999/xlink" width="238.671875" height="200"><defs><style type="text/css"></style></defs><path d="M509.505466 706.192705a29.813067 29.813067 0 0 0-36.521007 21.167277l-69.464446 259.075553a29.813067 29.813067 0 0 0 57.688284 14.906534l69.315381-259.224619a29.813067 29.813067 0 0 0-21.018212-35.924745zM792.729604 706.192705a29.813067 29.813067 0 0 0-36.521007 21.167277l-69.464447 259.075553a29.813067 29.813067 0 0 0 57.688285 14.906534l69.315381-259.224619a29.813067 29.813067 0 0 0-21.018212-35.924745z" fill="" p-id="2063"></path><path d="M608.633914 864.649156m-44.7196 0a44.719601 44.719601 0 1 0 89.439201 0 44.719601 44.719601 0 1 0-89.439201 0Z" fill="" p-id="2064"></path><path d="M685.253497 178.948612L511.741446 455.762941h108.519565L576.882998 626.144619l173.362985-234.181642h-108.370499L685.253497 178.948612z" fill="" p-id="2065"></path><path d="M882.01974 864.649156a29.813067 29.813067 0 0 1 0-59.626134h24.893911A254.454528 254.454528 0 0 0 1162.709767 546.54373 261.460599 261.460599 0 0 0 983.831364 298.200881l-14.906534-5.217287-4.919156-13.714011a326.900281 326.900281 0 0 0-612.658529-13.41588l-7.006071 18.931298H320.341555A261.758729 261.758729 0 0 0 59.626283 546.54373C59.626283 693.820282 167.400521 805.023022 310.354178 805.023022h49.936887a29.813067 29.813067 0 0 1 0 59.626134h-49.936887C136.245866 864.649156 0.000149 724.974937 0.000149 546.54373a321.682994 321.682994 0 0 1 304.689546-321.533929 386.526415 386.526415 0 0 1 711.190716 20.869147A321.235798 321.235798 0 0 1 1222.335901 546.54373 313.037205 313.037205 0 0 1 906.913651 864.649156h-5.664483" fill="" p-id="2066"></path></svg>